<svg xmlns="http://www.w3.org/2000/svg" version="1.1" xmlns:xlink="http://www.w3.org/1999/xlink" xmlns:svgjs="http://svgjs.dev/svgjs" viewBox="0 0 1920 1080"><rect width="1920" height="1080" fill="#00c25e"></rect><g transform="matrix(-2.112515728529184e-16,-1.15,1.15,-2.112515728529184e-16,296.788513183594,1595.4567901611329)"><path d="M0,-1080C-12.780870288191723,-1002.0268171769518,-63.730299910728476,-779.1798235565883,-76.68522172915034,-612.1609030617107C-89.64014354757221,-445.141982566833,-83.71406809341089,-230.50935155012215,-77.7295309105312,-77.88647703073423C-71.7449937276515,74.7363974886537,-63.85005450000213,162.76668816918774,-40.77799863187218,303.5763440546168C-17.705942763742225,444.38599994004585,61.10009449051995,612.1266624485896,60.70280429824854,766.9714582818401C60.305514105977124,921.8162541150906,-19.64858928609007,1088.4030476325988,-43.16173978550067,1232.64511905412C-66.67489028491127,1376.887190475641,-87.56972199579853,1477.8647399866543,-80.37609869821509,1632.4238868109676C-73.18247540063165,1786.983033635281,-13.396016449702515,2072.070647801828,0,2160L 1920 2160 L 1920 -1080 Z" fill="url(&quot;#SvgjsLinearGradient1106&quot;)"></path><path d="M213.33333333333331,-1080C202.1097165218562,-996.9719260961733,157.88849099115316,-739.987044056371,145.99163246447057,-581.8315565770403C134.09477393778798,-423.6760690977095,117.034281564976,-292.8608359977718,141.95218217323773,-131.0670751240156C166.87008278149946,30.726685749740625,273.7530998272838,238.3745033952481,295.49903611404096,388.9310086654969C317.24497240079813,539.4875139357457,293.1016501695116,622.2473421800338,272.4277998937808,772.2719564974773C251.75394961805,922.2965708149208,175.7824455111454,1136.3898591505226,171.4559344596563,1289.078694570158C167.1294234081672,1441.7675299897933,239.48916710590004,1543.2514181103156,246.4687335848462,1688.4049690152892C253.44830006379237,1833.5585199202628,218.8559000419188,2081.400828169215,213.33333333333331,2160L 1920 2160 L 1920 -1080 Z" fill="url(&quot;#SvgjsLinearGradient1107&quot;)"></path><path d="M426.66666666666663,-1080C440.42616407119795,-985.8254867224606,510.7642284290015,-736.7802699827315,509.2236510938546,-514.9529203347638C507.6830737587077,-293.1255706867961,443.9823764239378,34.17998527736634,417.423202655785,250.96409788780625C390.86402888763223,467.7482104982462,355.02317301261576,562.7901608583164,349.8686084849379,785.7517553278756C344.71404395726006,1008.7133497974347,373.6961391260966,1359.6922905931403,386.4958154897181,1588.7336647051611C399.29549185333957,1817.775038817182,419.9715248038419,2064.7889441175266,426.66666666666663,2160L 1920 2160 L 1920 -1080 Z" fill="url(&quot;#SvgjsLinearGradient1108&quot;)"></path><path d="M640,-1080C645.6760742859692,-970.566796621376,674.3966667489584,-648.2612730563047,674.0564457158149,-423.40077972825605C673.7162246826714,-198.5402864002074,641.1849393898526,51.21427440381569,637.9586738011392,269.16295996829194C634.7324082124258,487.1116455327682,653.8941422192951,690.9296711620298,654.6988521835342,884.2913336586014C655.5035621477733,1077.652996155173,645.2367422838297,1216.7148238908217,642.786933586574,1429.3329349477215C640.3371248893184,1641.9510460046213,640.4644889310957,2038.2221558246201,640,2160L 1920 2160 L 1920 -1080 Z" fill="url(&quot;#SvgjsLinearGradient1109&quot;)"></path><path d="M853.3333333333333,-1080C848.1301185369641,-963.5123705551756,828.4774267893004,-598.0833850440641,822.1140445551184,-381.07422333105364C815.7506623209365,-164.0650616180432,798.8001926254242,21.35269837532553,815.1530399282417,222.05497027806257C831.5058872310592,422.7572421807996,925.5814005866442,602.2614768570741,920.2311283720235,823.1394080853685C914.8808561574027,1044.017339313663,794.2010391469656,1324.5124589953903,783.0514066405173,1547.322557647829C771.9017741340689,1770.1326563002676,841.6196788845306,2057.8870929413047,853.3333333333333,2160L 1920 2160 L 1920 -1080 Z" fill="url(&quot;#SvgjsLinearGradient1110&quot;)"></path><path d="M1066.6666666666667,-1080C1074.8174753390686,-995.3007609548519,1117.0784148259297,-737.5518881114416,1115.5715187010771,-571.8045657291113C1114.0646225762246,-406.0572433467811,1067.1370980751983,-221.14160540883896,1057.6252899175508,-85.51606570601845C1048.1134817599034,50.10947399680205,1061.4052518313147,103.59925321246283,1058.5006697551926,241.94867248781168C1055.5960876790705,380.2980917631605,1036.0588233080343,568.4912444891808,1040.197797460818,744.5804499460746C1044.3367716136017,920.6696554029685,1066.8398754212371,1136.8025531626624,1083.3345146718946,1298.4839052291745C1099.829153922552,1460.1652572956866,1141.9436076323002,1571.082546550009,1139.1656329647622,1714.6685623451467C1136.387658297224,1858.2545781402844,1078.7498277163493,2085.778093724191,1066.6666666666667,2160L 1920 2160 L 1920 -1080 Z" fill="url(&quot;#SvgjsLinearGradient1111&quot;)"></path><path d="M1280,-1080C1265.9435674610309,-978.7961763811254,1208.854256559872,-655.1929972557712,1195.6614047661853,-472.7770582867523C1182.4685529724986,-290.3611193177335,1175.549110366394,-156.1518872586733,1200.84288923788,14.495633814112992C1226.136668109366,185.1431548868993,1326.7822487470885,379.3194862147776,1347.4240779951008,551.1080681499656C1368.065907243113,722.8966500851535,1342.0094298996707,879.1646823358633,1324.6938647259533,1045.2271254252407C1307.3782995522358,1211.2895685146182,1250.9796644071212,1361.6872475904365,1243.5306869527956,1547.4827266862299C1236.08170949847,1733.2782057820232,1273.9217811587991,2057.913787781038,1280,2160L 1920 2160 L 1920 -1080 Z" fill="url(&quot;#SvgjsLinearGradient1112&quot;)"></path><path d="M1493.3333333333333,-1080C1500.1891052264962,-942.135949406638,1536.393291685319,-534.0265104008859,1534.4679646923112,-252.8156964398278C1532.5426376993034,28.395117521230276,1476.4874847117655,326.49428997339146,1481.7813713752873,607.2648837663485C1487.0752580388091,888.0354775593055,1564.3059576804346,1173.0186802789722,1566.2312846734424,1431.8078663179142C1568.15661166645,1690.5970523568562,1505.4829918900182,2038.634644386319,1493.3333333333333,2160L 1920 2160 L 1920 -1080 Z" fill="url(&quot;#SvgjsLinearGradient1113&quot;)"></path><path d="M1706.6666666666665,-1080C1711.3157315667993,-989.2312780968492,1730.2707331722665,-712.700176756791,1734.5610560674627,-535.3876685810956C1738.8513789626588,-358.0751604054001,1745.7517512499426,-209.23830506751818,1732.4086040378431,-16.124950945827337C1719.0654568257437,176.98840317586348,1672.4103847084864,430.5316773745344,1654.5021727948654,623.2924561490495C1636.5939608812444,816.0532349235646,1610.7873411281812,981.4537909588103,1624.959332556117,1140.439721701263C1639.1313239840529,1299.4256524437155,1725.9162323440555,1407.2813275539759,1739.5341213624804,1577.2080406037653C1753.1520103809053,1747.1347536535548,1712.1445757826355,2062.868006767294,1706.6666666666665,2160L 1920 2160 L 1920 -1080 Z" fill="url(&quot;#SvgjsLinearGradient1114&quot;)"></path></g><defs><linearGradient x1="0.1" y1="0" x2="0" y2="1" id="SvgjsLinearGradient1106"><stop stop-color="#00c25e" offset="0"></stop><stop stop-color="#00c23e" offset="0"></stop></linearGradient><linearGradient x1="0.1" y1="0" x2="0" y2="1" id="SvgjsLinearGradient1107"><stop stop-color="#00a651" offset="0"></stop><stop stop-color="#00a635" offset="0.1111111111111111"></stop></linearGradient><linearGradient x1="0.1" y1="0" x2="0" y2="1" id="SvgjsLinearGradient1108"><stop stop-color="#008b43" offset="0"></stop><stop stop-color="#008b2c" offset="0.2222222222222222"></stop></linearGradient><linearGradient x1="0.1" y1="0" x2="0" y2="1" id="SvgjsLinearGradient1109"><stop stop-color="#006f36" offset="0"></stop><stop stop-color="#006f23" offset="0.3333333333333333"></stop></linearGradient><linearGradient x1="0.1" y1="0" x2="0" y2="1" id="SvgjsLinearGradient1110"><stop stop-color="#005328" offset="0"></stop><stop stop-color="#00531a" offset="0.4444444444444444"></stop></linearGradient><linearGradient x1="0.1" y1="0" x2="0" y2="1" id="SvgjsLinearGradient1111"><stop stop-color="#00381b" offset="0"></stop><stop stop-color="#003812" offset="0.5555555555555556"></stop></linearGradient><linearGradient x1="0.1" y1="0" x2="0" y2="1" id="SvgjsLinearGradient1112"><stop stop-color="#001c0d" offset="0"></stop><stop stop-color="#001c08" offset="0.6666666666666666"></stop></linearGradient><linearGradient x1="0.1" y1="0" x2="0" y2="1" id="SvgjsLinearGradient1113"><stop stop-color="#000000" offset="0"></stop><stop stop-color="#000000" offset="0.7777777777777778"></stop></linearGradient><linearGradient x1="0.1" y1="0" x2="0" y2="1" id="SvgjsLinearGradient1114"><stop stop-color="#000000" offset="0"></stop><stop stop-color="#000000" offset="0.8888888888888888"></stop></linearGradient></defs></svg>