<svg xmlns="http://www.w3.org/2000/svg" version="1.1" xmlns:xlink="http://www.w3.org/1999/xlink" xmlns:svgjs="http://svgjs.dev/svgjs" viewBox="0 0 1920 1080"><rect width="1920" height="1080" fill="#0dbcbf"></rect><g transform="matrix(1.1108147002324285,0.29764190186789885,-0.29764190186789885,1.1108147002324285,57.25379210955384,-337.76201260153016)"><path d="M0,-1080C6.419562938581336,-995.3046900736514,31.899757612686006,-727.2293423131177,38.51737763148802,-571.8281404419084C45.13499765029003,-416.4269385706991,54.8394480495246,-291.06977685469883,39.705720112812074,-147.5927887727443C24.57199217609955,-4.1158006907898255,-57.313576823131264,142.024783478516,-52.28498998878711,289.0337880498186C-47.25640315444296,436.0427926211212,67.14332052288678,565.2127021386714,69.87724111887701,734.4612386550712C72.61116171486724,903.7097751714709,-21.8637988315702,1147.1796611907812,-35.88146641284573,1304.5250071482174C-49.899133994121264,1461.8703531056535,-20.209008770917144,1535.9541489243907,-14.22876436877619,1678.5333143996877C-8.248519966635236,1821.1124798749847,-2.371460728129365,2079.755552399948,0,2160L 1920 2160 L 1920 -1080 Z" fill="url(&quot;#SvgjsLinearGradient1106&quot;)"></path><path d="M274.2857142857143,-1080C275.19832523964305,-1000.5260894600724,279.36304334901195,-764.1366896256368,279.76138000928694,-603.1565367604342C280.15971666956193,-442.17638389523154,289.89281734924623,-263.52710734909306,276.6757342473641,-114.11908280878407C263.458651145482,35.28894173152494,210.92464373795156,157.97143059493598,200.4588813979942,293.29161048141987C189.99311905803683,428.6117903679037,192.94798660704654,550.8094346859102,213.88116020761998,697.8019965101192C234.81433380819342,844.7945583343283,315.8170827925826,1018.1888166369508,326.0579230014348,1175.2469814266738C336.298763210287,1332.3051462163967,283.9549029133532,1476.0254821529022,275.3262014607331,1640.1509852484567C266.697500008113,1804.276488344011,274.4591288148841,2073.3584975414096,274.2857142857143,2160L 1920 2160 L 1920 -1080 Z" fill="url(&quot;#SvgjsLinearGradient1107&quot;)"></path><path d="M548.5714285714286,-1080C550.930452340884,-963.8063102369208,571.949692713704,-610.8244002919885,562.7255711881611,-382.83786142152456C553.5014496626181,-154.8513225510607,485.89406689950056,74.51255511690087,493.22669941817117,287.9192332227833C500.5593319368418,501.3259113286657,586.5678108256578,684.4052033638374,606.7213663001846,897.60220721377C626.8749217747114,1110.7992110637026,623.839688553458,1356.701624191341,614.148032265332,1567.1012563223792C604.4563759772059,1777.5008884534175,559.5008625204125,2061.1835427203964,548.5714285714286,2160L 1920 2160 L 1920 -1080 Z" fill="url(&quot;#SvgjsLinearGradient1108&quot;)"></path><path d="M822.8571428571428,-1080C813.2210416812594,-962.0853612124761,754.1801520132863,-582.9102435025915,765.0405358018425,-372.51216727485644C775.9009195903986,-162.11409104712143,884.0264322286586,-14.920829648820813,888.01944558848,182.38845736640985C892.0124589483015,379.6977443816405,808.7271657487204,594.9402578950096,788.9986159607713,811.3435548165277C769.2700661728222,1027.7468517380457,764.0050590447236,1256.0321646982725,769.6481468607855,1480.808238895518C775.2912346768474,1705.5843130927633,813.9889768577499,2046.8013731492529,822.8571428571428,2160L 1920 2160 L 1920 -1080 Z" fill="url(&quot;#SvgjsLinearGradient1109&quot;)"></path><path d="M1097.142857142857,-1080C1096.1247978357342,-1002.0710525102282,1080.667526204629,-785.5647769000734,1091.0345013001192,-612.4263150613695C1101.4014763956095,-439.2878532226655,1169.2601466597023,-225.66645966068842,1159.3447077157991,-41.169228967776476C1149.429268771896,143.32800172513544,1036.6737858751078,309.2599981667371,1031.5418676367008,494.5570690961022C1026.4099493982937,679.8541400254674,1116.4175716935847,875.5637388319977,1128.553198285357,1070.6131966084145C1140.6888248771293,1265.6626543848313,1109.590684044418,1483.2893485226718,1104.3556271873347,1664.8538157546027C1099.1205703302514,1846.4182829865335,1098.3449854836033,2077.4756359591006,1097.142857142857,2160L 1920 2160 L 1920 -1080 Z" fill="url(&quot;#SvgjsLinearGradient1110&quot;)"></path><path d="M1371.4285714285716,-1080C1362.9430390484001,-990.7702893740037,1328.66709614085,-704.1387814789349,1320.5153771475434,-544.6217362440224C1312.3636581542369,-385.10469100910984,1312.0634053524436,-254.7401995255356,1322.5182574687328,-122.89772859052454C1332.973109585022,8.944742344486514,1367.6714135490986,102.23534147007214,1383.244489845278,246.43308936604382C1398.8175661414573,390.63083726201546,1406.3037239616126,568.8098029528969,1415.956715245809,742.2887587853055C1425.6097065300053,915.7677146177141,1454.8315554243627,1140.2349736442225,1441.1624375504555,1287.306824360495C1427.4933196765483,1434.3786750767676,1345.5643190226788,1479.2710004763567,1333.942008002365,1624.719863082941C1322.319696982051,1770.1687256895252,1365.1808108575372,2070.786643847157,1371.4285714285716,2160L 1920 2160 L 1920 -1080 Z" fill="url(&quot;#SvgjsLinearGradient1111&quot;)"></path><path d="M1645.7142857142856,-1080C1654.875769475797,-1003.1037038289072,1711.6649143428074,-763.8635318678673,1700.683188283354,-618.6222229734431C1689.7014622239005,-473.3809140790188,1581.5113060583392,-325.5737145703896,1579.8239293575648,-208.55214663345433C1578.1365526567904,-91.53057869651907,1668.3433444702555,-29.50823767538111,1690.5589280787071,83.50718464816845C1712.7745116871588,196.522606971718,1732.403009197224,332.46869915108493,1713.117431008275,469.540387307843C1693.8318528193258,606.612075464601,1581.3937519029485,766.7717572589196,1574.8454589450128,905.9373135887166C1568.297165987077,1045.1028699185138,1672.4503095132786,1154.0354187147748,1673.8276732606603,1304.5337252866254C1675.205037008042,1455.032031858476,1587.7952060203659,1666.3494405675915,1583.1096414293033,1808.9271530198207C1578.4240768382408,1951.50486547205,1635.2801783334553,2101.487858836637,1645.7142857142856,2160L 1920 2160 L 1920 -1080 Z" fill="url(&quot;#SvgjsLinearGradient1112&quot;)"></path></g><defs><linearGradient x1="0.1" y1="0" x2="0" y2="1" id="SvgjsLinearGradient1106"><stop stop-color="#0dbcbf" offset="0"></stop><stop stop-color="#0dbfa4" offset="0"></stop></linearGradient><linearGradient x1="0.1" y1="0" x2="0" y2="1" id="SvgjsLinearGradient1107"><stop stop-color="#0fdbdf" offset="0"></stop><stop stop-color="#0fdfc0" offset="0.14285714285714285"></stop></linearGradient><linearGradient x1="0.1" y1="0" x2="0" y2="1" id="SvgjsLinearGradient1108"><stop stop-color="#20ecf0" offset="0"></stop><stop stop-color="#20f0d1" offset="0.2857142857142857"></stop></linearGradient><linearGradient x1="0.1" y1="0" x2="0" y2="1" id="SvgjsLinearGradient1109"><stop stop-color="#40eff2" offset="0"></stop><stop stop-color="#40f2d7" offset="0.42857142857142855"></stop></linearGradient><linearGradient x1="0.1" y1="0" x2="0" y2="1" id="SvgjsLinearGradient1110"><stop stop-color="#60f2f4" offset="0"></stop><stop stop-color="#60f4dd" offset="0.5714285714285714"></stop></linearGradient><linearGradient x1="0.1" y1="0" x2="0" y2="1" id="SvgjsLinearGradient1111"><stop stop-color="#80f4f6" offset="0"></stop><stop stop-color="#80f6e4" offset="0.7142857142857143"></stop></linearGradient><linearGradient x1="0.1" y1="0" x2="0" y2="1" id="SvgjsLinearGradient1112"><stop stop-color="#9ff7f8" offset="0"></stop><stop stop-color="#9ff8ea" offset="0.8571428571428571"></stop></linearGradient></defs></svg>