<svg xmlns="http://www.w3.org/2000/svg" version="1.1" xmlns:xlink="http://www.w3.org/1999/xlink" xmlns:svgjs="http://svgjs.dev/svgjs" viewBox="0 0 1920 1080"><rect width="1920" height="1080" fill="#3c53c8"></rect><g transform="matrix(0.8131727983645296,0.8131727983645295,-0.8131727983645295,0.8131727983645296,606.571839196766,-627.9831903245235)"><path d="M0,-1080C5.361492764831174,-1015.4032285060771,51.41511343858602,-833.2556635874327,32.168956588987044,-692.4193710364623C12.922799739388068,-551.5830784854919,-93.32470340296891,-407.83661524247543,-115.47694109759385,-234.9822446941779C-137.6291787922188,-62.127874145880384,-126.50331714019627,187.347142156593,-100.74446957876262,344.7068522533228C-74.98562201732896,502.06656235005255,19.797975598327316,552.3178074795935,39.076144271008104,709.1760158862007C58.354312943688896,866.034224292808,22.341721893192254,1124.1025621005347,14.924542457322104,1285.8561026929663C7.5073630214519556,1447.6096432853979,-2.9395086013257696,1534.0066098896177,-5.426932344212787,1679.69725944079C-7.914356087099804,1825.3879089919624,-0.9044887240354645,2079.949543240132,0,2160L 1920 2160 L 1920 -1080 Z" fill="url(&quot;#SvgjsLinearGradient1018&quot;)"></path><path d="M320,-1080C313.2838642042437,-1019.8994066349868,262.5057483932253,-884.1829030789911,279.703185225462,-719.3964398099206C296.9006220576987,-554.6099765408501,418.361932188427,-251.24442661466628,423.18462099342025,-91.28122038557694C428.00730979841353,68.6819858435124,321.9709058622827,106.31073351124874,308.63931805542177,240.38279756461543C295.30773024856086,374.45486161798215,352.3488022388322,548.5063794761393,343.1950941522549,713.1511639346231C334.0413860656776,877.795948393107,264.86626378285456,1070.685061142279,253.71706953595805,1228.2515043155186C242.56787528906156,1385.8179474887581,265.2527735935356,1503.258407026647,276.29992867087594,1658.5498229740606C287.3470837482163,1813.841238921474,312.7166547784793,2076.424970495677,320,2160L 1920 2160 L 1920 -1080 Z" fill="url(&quot;#SvgjsLinearGradient1019&quot;)"></path><path d="M640,-1080C622.0250492420114,-980.8665784150761,547.6090788832385,-654.2702187326379,532.1502954520682,-485.19947049045663C516.691512020898,-316.1287222482754,547.7840417006516,-227.31160803093613,547.2472994129787,-65.57551054691237C546.7105571253057,96.16058693711139,522.9471115528393,302.5169466568302,528.9298417260304,485.217114413686C534.9125718992216,667.9172821705417,580.4635651738981,850.3413176259752,583.1436804521255,1030.6254959942223C585.8237957303529,1210.9096743624696,535.5344801374157,1378.693100622206,545.0105333953948,1566.922184623169C554.4865866533738,1755.151268624132,624.1684222325658,2061.1536974371948,640,2160L 1920 2160 L 1920 -1080 Z" fill="url(&quot;#SvgjsLinearGradient1020&quot;)"></path><path d="M960,-1080C979.3816671515144,-984.9831241841827,1055.3681877555364,-745.0156235585737,1076.2900029090863,-509.8987451050958C1097.2118180626362,-274.781866651618,1111.6844984548457,88.34632819610562,1085.5308909213002,330.70127072086717C1059.3772833877547,573.0562132456287,920.9264671608128,727.495728436514,919.3683577078139,944.2309100434736C917.810248254815,1160.9660916504333,1069.410293821276,1428.484178703204,1076.182234203307,1631.112360362625C1082.954174585338,1833.740542022046,979.3637057005511,2071.8520600604375,960,2160L 1920 2160 L 1920 -1080 Z" fill="url(&quot;#SvgjsLinearGradient1021&quot;)"></path><path d="M1280,-1080C1267.4393463572924,-994.3024087889115,1193.5512938454929,-709.866917102773,1204.636078143754,-565.8144527334692C1215.7208624420152,-421.7619883641655,1320.6921199831902,-347.390898243178,1346.508705789567,-215.68521378417762C1372.325291595944,-83.97952932517723,1351.1434634993122,78.49370327474179,1359.535592982015,224.4196540205332C1367.9277224647178,370.3456047663246,1393.163867668086,499.8124727260756,1396.8614826857843,659.8704906905707C1400.5590977034826,819.9285086550658,1398.3881472732635,1006.5790657234483,1381.7212830882052,1184.767761807504C1365.0544189031468,1362.9564578915597,1313.8138447568022,1566.4639608294895,1296.8602975754347,1729.0026671949054C1279.9067503940673,1891.5413735603213,1282.8100495959059,2088.167111199151,1280,2160L 1920 2160 L 1920 -1080 Z" fill="url(&quot;#SvgjsLinearGradient1022&quot;)"></path><path d="M1600,-1080C1580.5632529441466,-950.494154006437,1478.4043803976015,-556.200758035794,1483.3795176648798,-302.9649240386222C1488.3546549321582,-49.72909004145043,1614.4569034973176,146.97546321974875,1629.8508236036707,439.4150039830307C1645.2447437100238,731.8545447463127,1580.7181755702768,1164.9081545382412,1575.7430383029982,1451.6723205410694C1570.7679010357197,1738.4364865438977,1595.9571730504997,2041.945386756845,1600,2160L 1920 2160 L 1920 -1080 Z" fill="url(&quot;#SvgjsLinearGradient1023&quot;)"></path></g><defs><linearGradient x1="0.1" y1="0" x2="0" y2="1" id="SvgjsLinearGradient1018"><stop stop-color="#3c53c8" offset="0"></stop><stop stop-color="#3c6ac8" offset="0"></stop></linearGradient><linearGradient x1="0.1" y1="0" x2="0" y2="1" id="SvgjsLinearGradient1019"><stop stop-color="#6779d4" offset="0"></stop><stop stop-color="#678bd4" offset="0.16666666666666666"></stop></linearGradient><linearGradient x1="0.1" y1="0" x2="0" y2="1" id="SvgjsLinearGradient1020"><stop stop-color="#929fe0" offset="0"></stop><stop stop-color="#92ace0" offset="0.3333333333333333"></stop></linearGradient><linearGradient x1="0.1" y1="0" x2="0" y2="1" id="SvgjsLinearGradient1021"><stop stop-color="#bdc5ec" offset="0"></stop><stop stop-color="#bdcdec" offset="0.5"></stop></linearGradient><linearGradient x1="0.1" y1="0" x2="0" y2="1" id="SvgjsLinearGradient1022"><stop stop-color="#e8ebf9" offset="0"></stop><stop stop-color="#e8eef9" offset="0.6666666666666666"></stop></linearGradient><linearGradient x1="0.1" y1="0" x2="0" y2="1" id="SvgjsLinearGradient1023"><stop stop-color="#ffffff" offset="0"></stop><stop stop-color="#ffffff" offset="0.8333333333333334"></stop></linearGradient></defs></svg>