<svg xmlns="http://www.w3.org/2000/svg" version="1.1" xmlns:xlink="http://www.w3.org/1999/xlink" xmlns:svgjs="http://svgjs.dev/svgjs" viewBox="0 0 1920 1080"><rect width="1920" height="1080" fill="#e042ff"></rect><g transform="matrix(7.04171909509728e-17,1.15,-1.15,7.04171909509728e-17,1536.111717224121,-512.3784748077392)"><path d="M0,-1080C-10.049720924167275,-998.2902358836983,-57.254317715414054,-728.90486002941,-60.29832554500365,-589.74141530219C-63.342333374593245,-450.5779705749701,-13.543170753653158,-378.4480801056304,-18.26404697753759,-245.0193316366803C-22.98492320142202,-111.59058316773022,-100.04295969817636,26.405307745318822,-88.62358288831024,210.83107551151062C-77.20420607844412,395.2568432777024,18.955002634869043,693.4843314989291,50.252213881659145,861.5352749604704C81.54942512844924,1029.5862184220116,96.45533495226611,1079.555913256262,99.15968459243038,1219.1367362807578C101.86403423259465,1358.7175593052534,83.00492582138317,1542.2096691542372,66.47831172264478,1699.0202131074443C49.951697623906384,1855.8307570606514,11.079718620440795,2083.1700355179073,0,2160L 1920 2160 L 1920 -1080 Z" fill="url(&quot;#SvgjsLinearGradient1042&quot;)"></path><path d="M320,-1080C332.1544978326523,-984.0532594503668,404.21839926002576,-653.5547678358555,392.92698699591375,-504.31955670220106C381.63557473180174,-355.0843455685466,276.9205943032207,-337.741273038635,252.251526415328,-184.5887331980731C227.58245852743525,-31.4361933575112,238.96496061779948,271.10004828515434,244.91257966855733,414.59568234117046C250.86019871931518,558.0913163971866,259.34760951409714,552.0800432134164,287.93724071987504,676.3850711380238C316.5268719256529,800.6900990626312,407.3124083850737,1008.8411034908986,416.4503669032248,1160.4258498888153C425.5883254213759,1312.010596286732,358.84005297931895,1419.297857840326,342.7649918287815,1585.8935495255234C326.689930678244,1752.4892412107208,323.79416530479693,2064.3155915875873,320,2160L 1920 2160 L 1920 -1080 Z" fill="url(&quot;#SvgjsLinearGradient1043&quot;)"></path><path d="M640,-1080C651.2423058532256,-1010.5633949293107,699.5503457310923,-819.5092309338689,707.4538351193534,-663.3803695758643C715.3573245076144,-507.2515082178596,702.4928050578437,-321.9298121291183,687.4209363295665,-143.22683185197235C672.3490676012893,35.47614842517359,639.7713744334982,241.21416331570413,617.0226227496898,408.8375120870113C594.2738710658815,576.4608608583185,541.038070554954,712.0542846148627,550.9284262267163,862.5132607758707C560.8187818984786,1012.9722369368786,676.2171552733726,1156.933670323822,676.3647567802639,1311.591369053059C676.5123582871552,1466.249067782296,557.8748280647744,1649.0580146601349,551.8140352680638,1790.4594531512917C545.7532424713531,1931.8608916424485,625.3023392113439,2098.4099088585485,640,2160L 1920 2160 L 1920 -1080 Z" fill="url(&quot;#SvgjsLinearGradient1044&quot;)"></path><path d="M960,-1080C945.0716087157018,-964.667645027678,850.0615214582957,-607.479649310191,870.4296522942109,-388.00587016606744C890.797783130126,-168.53209102194384,1055.179204307098,29.617783090329226,1082.2087850154912,236.84267486474153C1109.2383657238845,444.0675666391538,1032.7321934655483,652.6914672227059,1032.6071365445705,855.3434804804065C1032.4820796235927,1057.995493738107,1093.55963291372,1235.3120011576789,1081.4584434896249,1452.7547544109445C1069.3572540655298,1670.1975076642102,980.2430739149374,2042.1257924018241,960,2160L 1920 2160 L 1920 -1080 Z" fill="url(&quot;#SvgjsLinearGradient1045&quot;)"></path><path d="M1280,-1080C1276.6456613267355,-937.4736589689599,1265.5227228566866,-505.6756136652995,1259.8739679604137,-224.84195381375935C1254.2252130641407,55.99170603778083,1237.3831275063235,323.7391842920718,1246.1074706223617,605.0019591092412C1254.8318137384,886.2647339264106,1306.5712717603692,1203.5683549407972,1312.2200266566422,1462.734695089257C1317.8687815529152,1721.9010352377168,1285.3700044427737,2043.7891158482096,1280,2160L 1920 2160 L 1920 -1080 Z" fill="url(&quot;#SvgjsLinearGradient1046&quot;)"></path><path d="M1600,-1080C1595.715185192983,-1010.2773826177573,1593.5125404739147,-804.2331388576067,1574.2911111578974,-661.6642957065442C1555.06968184188,-519.0954525554816,1488.0820215195822,-388.99623361099043,1484.6714241038967,-224.58694109362477C1481.2608266882112,-60.17764857625909,1533.9610663285616,148.99566789860333,1553.8275266637847,324.79145939765C1573.6939869990078,500.5872508966967,1585.23597195344,657.4514173881319,1603.8701861152356,830.1878079006552C1622.5044002770312,1002.9241984131786,1659.9963912101473,1218.5052877346172,1665.6328116345585,1361.20980247279C1671.2692320589697,1503.9143172109627,1648.627510600796,1553.2831967418235,1637.688708661703,1686.4148963296918C1626.74990672261,1819.5465959175601,1606.2814514436172,2081.069149388282,1600,2160L 1920 2160 L 1920 -1080 Z" fill="url(&quot;#SvgjsLinearGradient1047&quot;)"></path></g><defs><linearGradient x1="0.1" y1="0" x2="0" y2="1" id="SvgjsLinearGradient1042"><stop stop-color="#e042ff" offset="0"></stop><stop stop-color="#c042ff" offset="0"></stop></linearGradient><linearGradient x1="0.1" y1="0" x2="0" y2="1" id="SvgjsLinearGradient1043"><stop stop-color="#e76aff" offset="0"></stop><stop stop-color="#ce6aff" offset="0.16666666666666666"></stop></linearGradient><linearGradient x1="0.1" y1="0" x2="0" y2="1" id="SvgjsLinearGradient1044"><stop stop-color="#ed92ff" offset="0"></stop><stop stop-color="#db92ff" offset="0.3333333333333333"></stop></linearGradient><linearGradient x1="0.1" y1="0" x2="0" y2="1" id="SvgjsLinearGradient1045"><stop stop-color="#f4baff" offset="0"></stop><stop stop-color="#e8baff" offset="0.5"></stop></linearGradient><linearGradient x1="0.1" y1="0" x2="0" y2="1" id="SvgjsLinearGradient1046"><stop stop-color="#fae2ff" offset="0"></stop><stop stop-color="#f5e2ff" offset="0.6666666666666666"></stop></linearGradient><linearGradient x1="0.1" y1="0" x2="0" y2="1" id="SvgjsLinearGradient1047"><stop stop-color="#ffffff" offset="0"></stop><stop stop-color="#ffffff" offset="0.8333333333333334"></stop></linearGradient></defs></svg>