<svg xmlns="http://www.w3.org/2000/svg" version="1.1" xmlns:xlink="http://www.w3.org/1999/xlink" xmlns:svgjs="http://svgjs.dev/svgjs" viewBox="0 0 1920 1080"><rect width="1920" height="1080" fill="#bc6bff"></rect><g transform="matrix(0.9959292143521045,0.5749999999999998,-0.5749999999999998,0.9959292143521045,314.15246773064496,-513.7142129983663)"><path d="M0,-1080C-20.819186953443687,-957.9269330807658,-117.51410304135611,-555.2503893182922,-124.91512172066211,-347.56159848459504C-132.3161403999681,-139.87280765089795,-70.07034858252104,-40.926391776391654,-44.406112075836006,166.1327450021825C-18.741875569150977,373.19188178075666,27.136139790677287,680.2887832495328,29.07029731944806,894.7932221868499C31.00445484821883,1109.297661124167,-27.956117349970025,1242.2915823238934,-32.80116690321137,1453.159378626085C-37.64621645645271,1664.0271749282767,-5.466861150535228,2042.193229771014,0,2160L 1920 2160 L 1920 -1080 Z" fill="url(&quot;#SvgjsLinearGradient1030&quot;)"></path><path d="M213.33333333333331,-1080C209.888250867784,-994.3442643518481,210.94854517817464,-737.8398272518451,192.66283854003737,-566.0655861110886C174.3771319019001,-394.29134497033203,111.11140031781702,-180.8366987683347,103.61909350450975,-49.354553155460394C96.12678669120248,82.12759245741393,119.2518093898767,67.52598804581109,147.7089976601938,222.82728756615728C176.1661859305109,378.12858708650344,270.4135778667498,720.3123005486345,274.36222312641235,882.4532439666167C278.3108683860749,1044.5941873845989,189.63834890967388,1063.437572453868,171.40086921816913,1195.6729480740503C153.1633895266644,1327.9083236942326,157.9486009581899,1515.1443223667193,164.93734497738393,1675.865497687711C171.92608899657796,1836.5866730087027,205.26733527400842,2079.3109162812852,213.33333333333331,2160L 1920 2160 L 1920 -1080 Z" fill="url(&quot;#SvgjsLinearGradient1031&quot;)"></path><path d="M426.66666666666663,-1080C432.19549536899234,-1010.2662921896571,439.30646443600244,-849.645229849053,459.839638880621,-661.5977531379426C480.3728133252396,-473.5502764268323,576.3020672193886,-171.22365124587657,549.8657133343779,48.28486026666178C523.4293594493672,267.79337177920013,339.06389455636565,469.89293726968083,301.221515570557,655.4533159372875C263.3791365847484,841.0136946048941,311.1468824575667,997.4602385700106,322.811439419526,1161.6471322723019C334.4759963814853,1325.834025974593,353.8996528011226,1474.182533529752,371.20885734231274,1640.574678151035C388.51806188350287,1806.966822772318,417.423698445941,2073.4291130251727,426.66666666666663,2160L 1920 2160 L 1920 -1080 Z" fill="url(&quot;#SvgjsLinearGradient1032&quot;)"></path><path d="M640,-1080C631.044260219673,-1013.3209044370803,581.9331660318283,-838.2032842059692,586.2655613180381,-679.925426622482C590.5979566042479,-521.6475690389947,636.2492390941834,-314.97145293240453,665.9943717172589,-130.33285449907606C695.7395043403344,54.30574393425243,779.3711342997481,280.09142006163063,764.7363570564912,427.9061639774889C750.1015798132344,575.7209078933472,590.963227157576,602.7471560711441,578.185708257718,756.5556089960735C565.4081893578601,910.3640619210029,682.1991029471869,1211.9481633262374,688.071243657344,1350.7568815270652C693.943384367501,1489.565599727893,621.4304264615513,1454.534065122218,613.4185525186606,1589.4079182010405C605.4066785757699,1724.281771279863,635.5697587531101,2064.901319700173,640,2160L 1920 2160 L 1920 -1080 Z" fill="url(&quot;#SvgjsLinearGradient1033&quot;)"></path><path d="M853.3333333333333,-1080C851.1151775237894,-1017.5216576616843,833.5446992308393,-831.278737240631,840.0243984760698,-705.1299459701058C846.5040977213002,-578.9811546995807,900.8469352927233,-458.65897528030325,892.211528804716,-323.10725237684875C883.5761223167086,-187.55552947339427,811.4878662019946,-21.396582910528963,788.211959548026,108.18039145062096C764.9360528940574,237.75736581177088,734.3419379276995,321.5911418854404,752.5560888809043,454.3545937900508C770.7702398341091,587.1180456946612,888.8406485704461,743.7418537118716,897.4968652672546,904.7611028782833C906.1530819640632,1065.780352044695,790.9073404645287,1289.8191376256555,804.4933890617552,1420.470088788521C818.0794376589818,1551.1210399513866,970.8731661386839,1565.4118246535643,979.0131568506135,1688.6668098554774C987.1531475625432,1811.9217950573905,874.2799705862133,2081.444468309246,853.3333333333333,2160L 1920 2160 L 1920 -1080 Z" fill="url(&quot;#SvgjsLinearGradient1034&quot;)"></path><path d="M1066.6666666666667,-1080C1055.1671326239484,-965.1244260941979,1002.0917902622865,-588.8092694003049,997.6694624103573,-390.7465565651878C993.247134558428,-192.68384373007075,1010.7763458389929,-112.79166315692726,1040.1326995550912,108.37627701070221C1069.4890532711895,329.5442171783317,1190.511629463437,697.875009193013,1173.8075847069472,936.2610844405889C1157.1035399504574,1174.6471596881647,957.7652506895325,1334.7362425695885,939.9084310161525,1538.692728496157C922.0516113427724,1742.6492144227257,1045.5402940582476,2056.4487880826928,1066.6666666666667,2160L 1920 2160 L 1920 -1080 Z" fill="url(&quot;#SvgjsLinearGradient1035&quot;)"></path><path d="M1280,-1080C1269.6152646258663,-1008.2728922712806,1213.4209972622025,-800.7245671493916,1217.6915877551976,-649.6373536276838C1221.9621782481927,-498.55014010597586,1309.8605711038908,-317.3193693707909,1305.6235429579706,-173.47671886975263C1301.3865148120503,-29.63406836871431,1212.6035114917613,79.79718014714439,1192.2694188796763,213.41854937854623C1171.9353262675913,347.0399186099481,1172.5952275161499,523.2067291019291,1183.6189872854602,628.2514965186584C1194.6427470547706,733.2962639353877,1225.8130675918721,727.0202858145053,1258.4119774955386,843.687153878922C1291.010887399205,960.3540219433387,1384.6775596479768,1185.1180422749062,1379.212446707459,1328.2527049051587C1373.7473337669414,1471.3873675354112,1242.156707637009,1563.8705804779638,1225.6212998524325,1702.4951296604374C1209.0858920678559,1841.119678842911,1270.9368833087387,2083.7491882767395,1280,2160L 1920 2160 L 1920 -1080 Z" fill="url(&quot;#SvgjsLinearGradient1036&quot;)"></path><path d="M1493.3333333333333,-1080C1488.9381501664818,-951.0905869878933,1457.974852452289,-528.4367913821428,1466.9622343322249,-306.54352192735945C1475.9496162121607,-84.65025247257611,1559.660302912366,68.36678996086735,1547.257624612948,251.3596167287002C1534.8549463135298,434.35244349653306,1415.4548924412381,600.518535260158,1392.5461645357163,791.4134386796375C1369.6374366301945,982.3083420991169,1393.007395713548,1168.6312770255163,1409.8052571798175,1396.7290372455768C1426.603118646087,1624.8267974656374,1479.4119873077473,2032.7881728742627,1493.3333333333333,2160L 1920 2160 L 1920 -1080 Z" fill="url(&quot;#SvgjsLinearGradient1037&quot;)"></path><path d="M1706.6666666666665,-1080C1692.1101735878424,-1004.8859791354581,1636.841389746025,-802.5362646376724,1619.3277081937213,-629.3158748127485C1601.8140266414175,-456.09548498782453,1602.2845011152365,-228.2417110332569,1601.5845773528438,-40.67766105045672C1600.884653590451,146.88638893234346,1594.230934611917,290.89858063638803,1615.1281656193646,496.0684250840528C1636.0253966268122,701.2382695317176,1719.8984656697303,986.3959908572691,1726.9679633975295,1190.3414056355318C1734.0374611253287,1394.2868204137944,1660.9287014413037,1558.1311480262175,1657.54515198616,1719.7409137536288C1654.1616025310161,1881.35067948104,1698.4797475532487,2086.6234856256046,1706.6666666666665,2160L 1920 2160 L 1920 -1080 Z" fill="url(&quot;#SvgjsLinearGradient1038&quot;)"></path></g><defs><linearGradient x1="0.1" y1="0" x2="0" y2="1" id="SvgjsLinearGradient1030"><stop stop-color="#bc6bff" offset="0"></stop><stop stop-color="#a36bff" offset="0"></stop></linearGradient><linearGradient x1="0.1" y1="0" x2="0" y2="1" id="SvgjsLinearGradient1031"><stop stop-color="#ad4aff" offset="0"></stop><stop stop-color="#8f4aff" offset="0.1111111111111111"></stop></linearGradient><linearGradient x1="0.1" y1="0" x2="0" y2="1" id="SvgjsLinearGradient1032"><stop stop-color="#9e29ff" offset="0"></stop><stop stop-color="#7a29ff" offset="0.2222222222222222"></stop></linearGradient><linearGradient x1="0.1" y1="0" x2="0" y2="1" id="SvgjsLinearGradient1033"><stop stop-color="#8f08ff" offset="0"></stop><stop stop-color="#6608ff" offset="0.3333333333333333"></stop></linearGradient><linearGradient x1="0.1" y1="0" x2="0" y2="1" id="SvgjsLinearGradient1034"><stop stop-color="#7e00e6" offset="0"></stop><stop stop-color="#5800e6" offset="0.4444444444444444"></stop></linearGradient><linearGradient x1="0.1" y1="0" x2="0" y2="1" id="SvgjsLinearGradient1035"><stop stop-color="#6c00c5" offset="0"></stop><stop stop-color="#4b00c5" offset="0.5555555555555556"></stop></linearGradient><linearGradient x1="0.1" y1="0" x2="0" y2="1" id="SvgjsLinearGradient1036"><stop stop-color="#5a00a5" offset="0"></stop><stop stop-color="#3e00a5" offset="0.6666666666666666"></stop></linearGradient><linearGradient x1="0.1" y1="0" x2="0" y2="1" id="SvgjsLinearGradient1037"><stop stop-color="#480084" offset="0"></stop><stop stop-color="#320084" offset="0.7777777777777778"></stop></linearGradient><linearGradient x1="0.1" y1="0" x2="0" y2="1" id="SvgjsLinearGradient1038"><stop stop-color="#360063" offset="0"></stop><stop stop-color="#250063" offset="0.8888888888888888"></stop></linearGradient></defs></svg>